<svg xmlns="http://www.w3.org/2000/svg" width="33" height="16"><title>Logo Imdb Outline</title><path fill="#fff" fill-rule="evenodd" d="M31.114132.33081566c.85862 0 1.552025.68776334 1.552025 1.53802314V14.131168c0 .850757-.693405 1.538023-1.552025 1.538023H1.885397c-.857913 0-1.551742-.687266-1.551742-1.538023V1.8688388c0-.8502598.693829-1.53802314 1.551742-1.53802314zm0-.33081566H1.885397C.845831 0 0 .83831074 0 1.8688388V14.131168C0 15.1617.845831 16 1.885397 16h29.228735C32.153934 16 33 15.1617 33 14.131168V1.8688388C33 .83831074 32.153934 0 31.114132 0"></path><path fill="#fff" fill-rule="evenodd" d="M4.7516212 3.3883573v9.3318757h2.441826V3.3883573h-2.441826m7.6540928 0l-.565874 4.3607049-.346985-2.3702529c-.104875-.7597543-.200659-1.4249506-.296585-1.990452H8.0287272v9.3318757h2.1406948l.0092-6.1606503.899198 6.1606503h1.524422l.857913-6.2962729.0047 6.2962729h2.135655V3.3883573h-3.194698m6.992295 9.3318757c.584243 0 1.022467-.03175 1.314812-.09504.287023-.06313.533985-.171703.730099-.334698.196114-.158623.337894-.379956.415449-.660358.08196-.280588.127485-.841097.127485-1.6781663V6.6770058c0-.8821559-.03658-1.4744093-.08651-1.7775329-.0548-.2986145-.19171-.5746789-.410904-.8183905-.214461-.2448033-.533985-.4210162-.949434-.5292637-.41545-.108714-1.100023-.1634614-2.281983-.1634614h-1.821336v9.3318757zm.02308-7.6489027c.09548.054431.15968.1404417.187329.2623768.02716.1175796.04098.3888219.04098.8096815v3.6137022c0 .6246012-.04098 1.0045572-.12341 1.1449992-.08212.139976-.296444.20763-.64814.20763V4.9856349c.26472 0 .447009.026904.543241.085693m3.39557-1.6829541v9.3318612h2.200069l.155157-.592729c.196044.239814.415214.416031.657018.538437.242299.117425.598186.176215.876166.176215.383725 0 .721172-.09938.999669-.302981.283184-.198754.461493-.43874.53455-.710294.07758-.275741.114107-.691787.114107-1.248402V7.9619933c0-.5653519-.0094-.9320853-.03653-1.1037891-.02332-.1718574-.100895-.3485388-.223881-.5297352-.127838-.1805565-.305629-.3206931-.543406-.4205446-.241968-.099385-.519924-.1493023-.844511-.1493023-.27798 0-.638742.054897-.880688.1679635-.237282.1082594-.456452.2756027-.652496.4973775V3.3883762zm3.181651 7.0703042c0 .44777-.02332.737207-.06887.854632-.04541.118049-.241969.176218-.392605.176218-.14576 0-.241968-.05381-.291898-.171237-.04538-.113221-.07306-.375608-.07306-.787297V8.0658764c0-.4255263.02261-.6878962.06401-.7964468.04559-.1038999.141427-.1581777.282665-.1581777.150825 0 .351201.063594.402167.181026.04993.12194.07758.3799663.07758.7735985v2.3928016"></path></svg>