<?xml version="1.0" encoding="utf-8"?>
<!-- Generator: Adobe Illustrator 16.0.0, SVG Export Plug-In . SVG Version: 6.00 Build 0)  -->
<!DOCTYPE svg PUBLIC "-//W3C//DTD SVG 1.1//EN" "http://www.w3.org/Graphics/SVG/1.1/DTD/svg11.dtd">
<svg version="1.1" id="Layer_1" xmlns="http://www.w3.org/2000/svg" xmlns:xlink="http://www.w3.org/1999/xlink" x="0px" y="0px"
	 width="24px" height="24px" viewBox="0 0 999.975 999.998" enable-background="new 0 0 999.975 999.998"
	 xml:space="preserve">
<g>
	<path fill-rule="evenodd" clip-rule="evenodd" fill="#EF3A24" d="M469.658,191.855c243.015-37.031,421.7,106.749,430.237,340.201
		c0,218.233-215.672,367.146-418.738,367.146c-205.004,0-374.69-137.09-374.69-349.808
		c-1.685-120.522,59.981-214.931,153.876-277.477c-33.741-0.262-67.359,3.304-100.708,9.041c-12.409,3.347-13.387,0.48-2.229-18.864
		c36.924-53.505,93.516-73.932,150.531-62.979l-60.839-53.072l52.125-43.289l55.276,81.93
		c22.677-53.636,94.103-92.624,143.846-53.028c4.586,3.653,5.719,5.565,5.719,7.303c0,5.736-5.653,3.088-14.085,7.561
		c-16.952,9.044-23.686,24.994-23.795,45.595L469.658,191.855L469.658,191.855z"/>
	<polygon fill-rule="evenodd" clip-rule="evenodd" fill="#FFFFFF" points="785.257,521.231 694.33,521.231 694.33,768.158 
		591.643,768.158 591.643,521.231 501.237,521.231 501.237,420.348 785.257,420.348 785.257,521.231 	"/>
	<path fill-rule="evenodd" clip-rule="evenodd" fill="#FFFFFF" d="M370.267,575.393h-16.441v112.263H246.749V338.374h154.355
		c86.831,0,139.859,47.467,139.859,120.965c0,44.548-14.627,81.758-56.437,103.75l72.912,124.566H435.984L370.267,575.393
		L370.267,575.393z M353.825,493.067h30.73c28.534,0,45.354-14.256,45.354-36.208c0-21.424-18.341-36.204-45.354-36.204h-30.73
		V493.067L353.825,493.067z"/>
</g>
</svg>
